<?xml version="1.0" encoding="utf-8"?>
<!-- Generator: Adobe Illustrator 17.1.0, SVG Export Plug-In . SVG Version: 6.00 Build 0)  -->
<!DOCTYPE svg PUBLIC "-//W3C//DTD SVG 1.1//EN" "http://www.w3.org/Graphics/SVG/1.1/DTD/svg11.dtd">
<svg version="1.1" id="notcop" xmlns="http://www.w3.org/2000/svg" xmlns:xlink="http://www.w3.org/1999/xlink" x="0px" y="0px"
	 viewBox="0 0 200 200" enable-background="new 0 0 200 200" xml:space="preserve">
<g>
	<path fill="none" stroke="#000000" stroke-miterlimit="10" d="M120.5,130.5c-1.4,0.8-2.6,1.7-3.8,2.4c-1.6,0.8-3.2,1.6-4.8,2.3
		c-0.6,0.3-0.9,0.8-0.7,1.4c0.2,0.6,0.7,0.9,1.4,0.8c0.2,0,0.3-0.1,0.5-0.1c8-2.1,15.2-5.7,21.7-10.8c14.7-11.6,22.9-26.7,24.1-45.5
		c0.3-5.2-0.1-10.4-1.2-15.6c-2.9-13.5-9.6-24.9-20-34c-11-9.5-23.8-14.6-38.3-15.3c-6.2-0.3-12.4,0.3-18.4,1.9
		c-13.1,3.4-24,10.3-32.6,20.8C37.8,51.7,33.2,66.5,34.5,83.1c0.5,5.9,1.8,11.6,4,17.1c4,10,10.2,18.5,18.6,25.3
		c6.8,5.6,14.5,9.5,23.1,11.8c0.9,0.3,1.5,0,1.7-0.7c0.2-0.7-0.1-1.2-0.9-1.5c-2.6-1-5.1-2.4-7.4-4c-0.3-0.2-0.5-0.4-0.8-0.5
		c0.2-0.1,0.2-0.2,0.3-0.2c7.7-4.8,15.4-9.7,23.1-14.5c0.4-0.2,0.6-0.2,1,0c6.5,4.1,13.1,8.2,19.7,12.3
		C118,128.9,119.2,129.7,120.5,130.5z"/>
	<path fill="none" stroke="#000000" stroke-miterlimit="10" d="M120.5,130.5c-1.3-0.8-2.5-1.6-3.7-2.3c-6.6-4.1-13.1-8.2-19.7-12.3
		c-0.3-0.2-0.6-0.3-1,0c-7.7,4.9-15.4,9.7-23.1,14.5c-0.1,0-0.1,0.1-0.3,0.2c0.3,0.2,0.5,0.4,0.8,0.5c2.3,1.6,4.8,2.9,7.4,4
		c0.8,0.3,1.2,0.9,0.9,1.5c-0.2,0.7-0.8,0.9-1.7,0.7c-8.5-2.3-16.2-6.2-23.1-11.8c-8.4-6.8-14.6-15.2-18.6-25.3
		c-2.2-5.5-3.6-11.2-4-17.1c-1.3-16.6,3.3-31.4,13.8-44.3c8.6-10.5,19.5-17.3,32.6-20.8c6-1.6,12.2-2.2,18.4-1.9
		c14.5,0.7,27.3,5.8,38.3,15.3c10.4,9.1,17.1,20.4,20,34c1.1,5.1,1.5,10.3,1.2,15.6c-1.2,18.8-9.4,33.9-24.1,45.5
		c-6.5,5.1-13.8,8.6-21.7,10.8c-0.2,0-0.3,0.1-0.5,0.1c-0.7,0.1-1.2-0.2-1.4-0.8c-0.2-0.6,0.1-1.1,0.7-1.4c1.6-0.8,3.2-1.5,4.8-2.3
		C118,132.2,119.2,131.4,120.5,130.5z M68.3,130.1c-4.6-4.1-8.3-8.9-11-14.5c-2.7-5.6-4-11.5-4.2-17.7c-0.1-6.2,1-12.2,3.5-17.9
		c2.4-5.7,5.9-10.7,10.5-14.9c16.7-15.5,43.1-15.8,60,1c8.2,8.1,12.5,18,12.9,29.5c0.4,13.8-5,25.2-15.1,34.4
		c0.2-0.1,0.4-0.2,0.5-0.2c8.9-4.9,16.1-11.5,21.6-19.9c5.4-8.2,8.5-17.2,9.4-27c0.5-5.6,0.2-11.1-0.9-16.5
		c-2.1-10.6-6.8-20-14.1-28c-11-12-24.6-18.6-40.8-19.9c-6.3-0.5-12.5,0.1-18.6,1.7c-24.6,6.1-43.3,27.3-45.3,53.2
		c-0.4,5.7-0.1,11.4,1.2,17C42.1,108.2,52.5,121.3,68.3,130.1z M74.5,125.9c0,0,0.1,0.1,0.1,0.1c0.3-0.2,0.6-0.4,1-0.6
		c6.7-4.2,13.3-8.4,20-12.6c0.8-0.5,1.4-0.5,2.2,0c5.5,3.5,11,6.9,16.5,10.4c1.5,1,3.1,1.9,4.7,2.9c-0.1-0.3-0.2-0.5-0.2-0.7
		c-2.4-7.4-4.8-14.9-7.1-22.3c-0.3-1.1-0.2-1.5,0.7-2.1c5.9-4.1,11.8-8.3,17.7-12.4c0.2-0.2,0.5-0.4,0.9-0.7c-0.5,0-0.7,0-0.9,0
		c-7.4,0-14.8,0-22.2,0c-1.4,0-1.6-0.2-2.1-1.5c-2.9-8.3-5.8-16.6-8.7-24.8c-0.1-0.2-0.2-0.4-0.3-0.7c-0.1,0.2-0.1,0.2-0.1,0.2
		c-2.9,8.5-5.8,17-8.7,25.5c-0.4,1.1-0.7,1.3-1.9,1.3c-7.5,0-15,0-22.5,0c-0.2,0-0.5,0-0.9,0c0.3,0.2,0.4,0.3,0.5,0.4
		c6,4.2,12,8.4,18,12.5c1.1,0.8,1.3,1.2,0.8,2.5c-2.3,7-4.6,14-6.8,21C74.8,124.9,74.7,125.4,74.5,125.9z M57.2,85.2
		c0.5,0,0.9-0.1,1.3-0.1c8.7,0,17.3,0,26,0c0.6,0,0.8-0.2,1-0.8c2.7-8,5.5-16,8.3-24.1c0.5-1.4,1-2.9,1.5-4.4
		C80.5,56,63,66.1,57.2,85.2z M98,55.9c0.1,0.2,0.1,0.4,0.1,0.5c3.3,9.4,6.6,18.8,9.8,28.2c0.2,0.5,0.4,0.5,0.8,0.5
		c8.8,0,17.6,0,26.3,0c0.2,0,0.4,0,0.7,0c-2.5-8.1-7-14.8-13.5-20C115.3,59.3,107.2,56.3,98,55.9z M70.5,128.9
		c2.8-8.6,5.5-17,8.3-25.5c0.2-0.5-0.1-0.6-0.4-0.8c-4.7-3.3-9.4-6.5-14.1-9.8c-2.6-1.8-5.1-3.6-7.8-5.4c-1.8,7.8-1.5,15.4,1.1,23
		C60.2,117.7,64.5,123.8,70.5,128.9z M122.8,128.7c6.3-5.4,10.7-11.9,13.1-19.7c2.1-7,2.3-14.1,0.7-21.4c-0.3,0.2-0.5,0.3-0.6,0.4
		c-6.9,4.8-13.7,9.6-20.6,14.4c-0.6,0.4-0.7,0.7-0.5,1.4c2.3,7.1,4.6,14.3,6.9,21.4C122.1,126.4,122.4,127.5,122.8,128.7z"/>
	<path fill="none" stroke="#000000" stroke-miterlimit="10" d="M68.3,130.1c-15.8-8.8-26.2-21.9-30.3-39.6c-1.3-5.6-1.7-11.3-1.2-17
		c2-26,20.7-47.1,45.3-53.2c6.1-1.5,12.3-2.1,18.6-1.7c16.2,1.2,29.9,7.8,40.8,19.9c7.3,8,11.9,17.4,14.1,28
		c1.1,5.5,1.4,11,0.9,16.5c-0.9,9.8-4,18.8-9.4,27c-5.5,8.5-12.8,15.1-21.6,19.9c-0.2,0.1-0.3,0.2-0.5,0.2
		c10.2-9.2,15.5-20.6,15.1-34.4c-0.3-11.5-4.7-21.4-12.9-29.5c-17-16.8-43.3-16.5-60-1c-4.5,4.2-8,9.2-10.5,14.9
		c-2.4,5.7-3.6,11.7-3.5,17.9c0.1,6.2,1.5,12.1,4.2,17.7C60,121.2,63.7,126,68.3,130.1z"/>
	<path fill="none" stroke="#000000" stroke-miterlimit="10" d="M74.5,125.9c0.2-0.5,0.3-1.1,0.5-1.6c2.3-7,4.6-14,6.8-21
		c0.4-1.3,0.3-1.7-0.8-2.5c-6-4.2-12-8.4-18-12.5c-0.1-0.1-0.2-0.2-0.5-0.4c0.4,0,0.6,0,0.9,0c7.5,0,15,0,22.5,0
		c1.2,0,1.5-0.2,1.9-1.3c2.9-8.5,5.8-17,8.7-25.5c0,0,0-0.1,0.1-0.2c0.1,0.3,0.2,0.5,0.3,0.7c2.9,8.3,5.8,16.6,8.7,24.8
		c0.5,1.3,0.7,1.5,2.1,1.5c7.4,0,14.8,0,22.2,0c0.2,0,0.5,0,0.9,0c-0.4,0.3-0.6,0.5-0.9,0.7c-5.9,4.1-11.8,8.3-17.7,12.4
		c-0.9,0.6-1.1,1.1-0.7,2.1c2.4,7.4,4.8,14.9,7.1,22.3c0.1,0.2,0.1,0.4,0.2,0.7c-1.6-1-3.2-2-4.7-2.9c-5.5-3.5-11-6.9-16.5-10.4
		c-0.8-0.5-1.4-0.5-2.2,0c-6.6,4.2-13.3,8.4-20,12.6c-0.3,0.2-0.6,0.4-1,0.6C74.6,126,74.6,126,74.5,125.9z"/>
	<path fill="none" stroke="#000000" stroke-miterlimit="10" d="M57.2,85.2C63,66.1,80.5,56,95.3,56c-0.5,1.5-1,2.9-1.5,4.4
		c-2.8,8-5.5,16-8.3,24.1c-0.2,0.6-0.4,0.8-1,0.8c-8.7,0-17.3,0-26,0C58.1,85.1,57.7,85.1,57.2,85.2z"/>
	<path fill="none" stroke="#000000" stroke-miterlimit="10" d="M98,55.9c9.2,0.4,17.3,3.4,24.3,9.2c6.5,5.3,11,12,13.5,20
		c-0.3,0-0.5,0-0.7,0c-8.8,0-17.6,0-26.3,0c-0.4,0-0.7-0.1-0.8-0.5c-3.3-9.4-6.5-18.8-9.8-28.2C98.1,56.3,98.1,56.1,98,55.9z"/>
	<path fill="none" stroke="#000000" stroke-miterlimit="10" d="M70.5,128.9c-6-5.1-10.4-11.2-12.9-18.5c-2.6-7.6-2.9-15.2-1.1-23
		c2.6,1.8,5.2,3.6,7.8,5.4c4.7,3.3,9.4,6.5,14.1,9.8c0.3,0.2,0.5,0.3,0.4,0.8C76.1,111.8,73.3,120.3,70.5,128.9z"/>
	<path fill="none" stroke="#000000" stroke-miterlimit="10" d="M122.8,128.7c-0.4-1.2-0.8-2.3-1.1-3.4c-2.3-7.2-4.6-14.3-6.9-21.4
		c-0.2-0.7-0.1-1,0.5-1.4c6.9-4.8,13.8-9.6,20.6-14.4c0.2-0.1,0.4-0.2,0.6-0.4c1.7,7.2,1.5,14.3-0.7,21.4
		C133.5,116.8,129.2,123.3,122.8,128.7z"/>
</g>
<g>
	<path fill="none" stroke="#000000" stroke-miterlimit="10" d="M52.9,48l2.5-2.1L66.8,50l-6.8-8l2.2-1.9l9.8,11.5l-2.4,2L58,49.4
		l7,8.2l-2.2,1.9L52.9,48z"/>
	<path fill="none" stroke="#000000" stroke-miterlimit="10" d="M84,45c-0.6,1.5-1.9,2.7-4,3.5c-2,0.8-3.8,0.9-5.3,0.2
		c-2-0.8-3.4-2.4-4.4-5c-1-2.6-1.1-4.8-0.2-6.6c0.6-1.5,1.9-2.7,4-3.5s3.8-0.9,5.3-0.2c1.9,0.7,3.4,2.4,4.4,5
		C84.8,40.9,84.8,43.1,84,45z M81.3,43.6c0.3-1.1,0.2-2.5-0.4-4.1c-0.6-1.6-1.4-2.7-2.5-3.3c-1-0.6-2.1-0.7-3.3-0.2
		c-1.2,0.5-1.9,1.3-2.3,2.4c-0.4,1.1-0.2,2.5,0.4,4.1c0.6,1.6,1.5,2.7,2.5,3.2c1,0.6,2.1,0.6,3.3,0.2S80.9,44.7,81.3,43.6z"/>
	<path fill="none" stroke="#000000" stroke-miterlimit="10" d="M97.8,29.5l0.2,2.7l-4.5,0.4l1,12.4l-3.2,0.2l-1-12.4l-4.5,0.4
		l-0.2-2.7L97.8,29.5z"/>
	<path fill="none" stroke="#000000" stroke-miterlimit="10" d="M104.1,31.7c1.4-1,3.1-1.3,4.9-0.9c2.5,0.5,4.1,1.7,4.9,3.6
		c0.4,1,0.6,2,0.4,3l-3.1-0.6c0-0.8-0.2-1.3-0.4-1.8c-0.4-0.8-1.2-1.2-2.3-1.5c-1.1-0.2-2.1,0-2.9,0.8c-0.8,0.8-1.4,2-1.7,3.7
		s-0.3,3,0.2,3.9c0.5,1,1.3,1.6,2.3,1.8c1.1,0.2,1.9,0,2.6-0.6c0.4-0.3,0.8-0.8,1.1-1.6l3.1,0.6c-0.6,1.6-1.5,2.7-2.8,3.5
		c-1.3,0.8-2.8,1-4.5,0.7c-2.1-0.4-3.6-1.5-4.5-3.1c-0.9-1.6-1.1-3.6-0.6-6C101.3,34.7,102.4,32.8,104.1,31.7z"/>
	<path fill="none" stroke="#000000" stroke-miterlimit="10" d="M122.3,51.1c-1.4,0.6-2.9,0.4-4.6-0.5c-1.7-0.9-2.7-2.1-3-3.6
		c-0.3-1.5,0-2.9,0.7-4.4c0.8-1.4,1.8-2.4,3.2-3c1.4-0.6,2.9-0.4,4.6,0.5c1.7,0.9,2.7,2.1,3,3.6s0,2.9-0.7,4.4
		C124.8,49.5,123.7,50.5,122.3,51.1z M121,48.6c0.7-0.3,1.3-1,1.8-2c0.5-1,0.7-1.9,0.6-2.6c-0.1-0.7-0.6-1.3-1.3-1.7
		c-0.8-0.4-1.5-0.4-2.2-0.1c-0.7,0.3-1.3,1-1.8,2s-0.7,1.9-0.6,2.6c0.1,0.8,0.6,1.3,1.3,1.7C119.6,48.8,120.3,48.9,121,48.6z"/>
	<path fill="none" stroke="#000000" stroke-miterlimit="10" d="M135.9,56.2c-1.1-0.1-2.3-0.7-3.5-1.9l-2.2-2.2l-3.8,3.9l-2.2-2.2
		l10.6-10.8l4.6,4.5c1.1,1,1.6,2.2,1.7,3.3c0.1,1.2-0.4,2.4-1.6,3.5C138.2,55.7,137,56.3,135.9,56.2z M137.9,50.7
		c-0.1-0.5-0.3-1-0.8-1.5l-2-2l-3.1,3.2l2,2c0.5,0.5,1,0.8,1.6,0.8s1.1-0.2,1.6-0.8C137.7,51.7,138,51.2,137.9,50.7z"/>
</g>
</svg>
